<?xml version="1.0" encoding="UTF-8"?>
<svg width="1320px" height="724px" viewBox="0 0 1320 724" version="1.1" xmlns="http://www.w3.org/2000/svg" xmlns:xlink="http://www.w3.org/1999/xlink">
    <!-- Generator: Sketch 55.2 (78181) - https://sketchapp.com -->
    <title>Video</title>
    <desc>Created with Sketch.</desc>
    <defs>
        <path d="M284.484297,46.7407372 C191.350306,71.6265012 98.2163147,96.5115777 0.458591693,92.9933025 L0.458591693,92.9933025 C21.0147752,219.230421 41.5709588,345.46754 62.1271424,471.705347 L62.1271424,471.705347 C159.884178,475.222934 253.018169,450.338545 346.151473,425.452781 L346.151473,425.452781 C439.284776,400.567705 532.41808,375.682628 630.17649,379.200216 L630.17649,379.200216 C609.620307,252.963097 589.064123,126.725978 568.508627,0.488171865 L568.508627,0.488171865 C562.249916,0.262650215 556.026958,0.154014786 549.804687,0.154014786 L549.804687,0.154014786 C458.842646,0.154014786 371.654534,23.4487511 284.484297,46.7407372" id="path-1"></path>
        <polygon id="path-3" points="0.599818924 0.0798775036 114.722773 0.0798775036 114.722773 530.460177 0.599818924 530.460177"></polygon>
        <polygon id="path-5" points="0.350547977 0.391825964 20.1770964 0.391825964 20.1770964 126.948175 0.350547977 126.948175"></polygon>
    </defs>
    <g id="Desktop" stroke="none" stroke-width="1" fill="none" fill-rule="evenodd">
        <g id="OurStoriesIn_STEM_Landing_Page_Desktop" transform="translate(-61.000000, -1097.000000)">
            <g id="Video" transform="translate(61.000000, 1097.000000)">
                <g id="Group-18">
                    <polygon id="Fill-1" fill="#4F9046" points="0 723.548143 1320 723.548143 1320 0 0 0"></polygon>
                    <path d="M374.283548,218.830683 C569.725536,225.858676 746.674864,119.401031 942.116165,126.429024 C962.66448,252.525628 983.212796,378.621544 1003.76042,504.717461 C808.318437,497.688782 631.369109,604.147114 435.927808,597.119121 C415.38018,471.022517 394.831864,344.9266 374.283548,218.830683" id="Fill-2" fill="#F48C90"></path>
                    <g id="Group-6" transform="translate(373.282790, 125.094769)">
                        <mask id="mask-2" fill="white">
                            <use xlink:href="#path-1"></use>
                        </mask>
                        <g id="Clip-5"></g>
                        <path d="M340.11642,354.819676 C336.47175,338.030689 332.826393,321.241702 329.181724,304.452715 C328.534745,301.389609 330.462618,298.129171 333.494686,297.170704 C333.890023,297.045567 334.294987,296.963746 334.698575,296.927993 C351.851417,295.457977 369.009071,294.018214 386.197666,292.770969 C382.914644,287.029105 379.631623,281.292054 376.349289,275.557066 C375.534549,274.157182 375.720874,272.298691 376.812006,270.939373 C392.655764,251.234419 408.5339,231.738485 424.480103,212.666779 C420.018631,211.624429 415.55991,210.604081 411.104626,209.602297 C409.23382,209.173256 408.054682,207.368395 408.352388,205.38683 C410.144815,193.264354 411.939304,181.156316 413.735856,169.06478 C403.515518,173.691412 393.317181,178.454869 383.133971,183.313211 C381.425424,184.120413 379.491364,183.620553 378.505426,182.115471 C375.66862,177.750114 372.832502,173.388195 369.997072,169.029027 C363.226828,180.050022 356.464835,191.12121 349.708343,202.222651 C348.520267,204.140273 346.13174,204.832652 344.378503,203.770362 C343.29631,203.113049 342.659644,201.89812 342.692646,200.54499 C343.274996,178.752585 343.857345,156.965681 344.441758,135.187028 C338.696642,140.563794 332.954276,145.959812 327.213973,151.368894 C325.583807,152.920731 323.167091,152.919355 321.811254,151.368894 C321.755563,151.307013 321.70881,151.241694 321.655182,151.175688 C313.117951,140.027493 304.582095,128.888236 296.046239,117.748979 C291.6989,132.330879 287.351561,146.912091 283.002159,161.485053 C282.375807,163.633009 280.226545,165.007453 278.203791,164.55091 C278.123348,164.532345 278.042906,164.511718 277.963838,164.487653 C271.009333,162.440082 264.053453,160.380822 257.094135,158.300935 C264.435727,178.023078 271.776632,197.73697 279.115474,217.445362 C279.850458,219.427615 278.834956,221.797655 276.84658,222.737558 C275.618626,223.317864 274.242164,223.234668 273.19916,222.513412 C263.526107,215.705133 253.847553,208.865914 244.162124,201.97719 C242.912169,207.362207 241.662902,212.743786 240.41226,218.122615 C239.973607,219.981106 238.345504,221.362426 236.51595,221.422244 C225.595005,221.743338 214.656871,221.970234 203.698111,222.060993 C209.169584,232.533311 214.638307,242.990502 220.10428,253.433255 C221.002212,255.137043 220.474179,257.340692 218.875639,258.56731 C215.056334,261.470901 211.23359,264.355928 207.407409,267.219641 C228.248923,278.206946 249.021683,288.771397 269.760066,299.127517 C271.190845,299.843273 271.940267,301.460428 271.630185,303.14909 C270.403607,310.037814 269.175654,316.924475 267.947701,323.807011 C284.166858,316.602007 300.354389,309.205172 316.537106,301.778771 C319.464668,300.448331 322.658308,301.738205 323.671748,304.66036 C323.805819,305.041959 323.893137,305.442123 323.943328,305.851912 C325.841636,323.107756 327.740632,340.3636 329.63894,357.618757 C333.131663,356.686417 336.624385,355.752015 340.11642,354.819676 M423.027323,2.31214697 C443.582819,128.549266 468.453339,281.279678 489.009523,407.517485 C394.719771,425.302067 302.742916,457.287638 208.453163,475.07222 C187.897667,348.835101 163.027147,196.104001 142.470963,69.8668823" id="Fill-4" fill="#FFF7E4" mask="url(#mask-2)"></path>
                    </g>
                    <g id="Group-17" transform="translate(304.230478, 157.119030)">
                        <g id="Group-9" transform="translate(14.430287, 35.745527)">
                            <mask id="mask-4" fill="white">
                                <use xlink:href="#path-3"></use>
                            </mask>
                            <g id="Clip-8"></g>
                            <polygon id="Fill-7" fill="#F47731" mask="url(#mask-4)" points="114.722773 570.862383 93.1488074 574.363383 0.599818924 3.58087686 22.173785 0.0798775036"></polygon>
                        </g>
                        <path d="M46.0379749,19.5671012 C48.057528,32.0244172 39.6000055,43.760636 27.1473551,45.7816331 C14.6947047,47.8019427 2.96219432,39.341939 0.942641311,26.884623 C-1.07691169,14.4266195 7.37992357,2.68971339 19.832574,0.669403726 C32.2852244,-1.35159335 44.0184219,7.10978523 46.0379749,19.5671012" id="Fill-10" fill="#FAD250"></path>
                        <path d="M68.1612539,61.5430043 C66.563615,53.0809383 61.2223474,52.0071977 54.4614144,50.6468054 C48.686551,49.4850758 42.1420724,48.1686781 36.7135359,41.9661418 L38.2651353,40.6071244 C43.2332769,46.2844764 49.1476331,47.47439 54.8675239,48.625121 C61.791313,50.0178217 68.3316687,51.333532 70.1863042,61.1601147 L68.1612539,61.5430043 Z" id="Fill-12" fill="#000000"></path>
                        <g id="Group-16" transform="translate(128.498269, 439.257528)">
                            <mask id="mask-6" fill="white">
                                <use xlink:href="#path-5"></use>
                            </mask>
                            <g id="Clip-15"></g>
                            <path d="M8.39540347,226.159197 L6.87610041,224.765809 C27.021468,202.791246 15.5260267,124.693457 7.13240979,67.6676566 C2.29551506,34.8072065 -1.52576233,8.8511423 1.33280878,0.391825964 L3.28502045,1.05243079 C0.586556804,9.04086856 4.56519304,36.0706734 9.17189034,67.3679441 C13.5264012,96.9514918 18.4615593,130.481483 19.8221292,159.937172 C21.4115222,194.377299 17.6740779,216.038401 8.39540347,226.159197" id="Fill-14" fill="#000000" mask="url(#mask-6)"></path>
                        </g>
                    </g>
                </g>
                <g id="Play-Button" transform="translate(564.177407, 266.944834)">
                    <circle id="Oval" fill="#000000" cx="95.8225929" cy="95.8299949" r="95.5724033"></circle>
                    <polygon id="Triangle" fill="#FFF7E4" transform="translate(105.329795, 96.330374) rotate(-270.000000) translate(-105.329795, -96.330374) " points="105.329795 72.3121784 129.347991 120.34857 81.3115997 120.34857"></polygon>
                </g>
            </g>
        </g>
    </g>
</svg>